# xmcd
#
# Track frame offsets:
#	150
#	22160
#	41934
#	59725
#	74080
#	91580
#	108214
#	124515
#	141951
#	159337
#	170901
#	185935
#	199750
#	216400
#	238369
#	258520
#	270390
#	287622
#	304152
#	332379
#
# Disc length: 4437 seconds
#
# Revision: 1
# Processed by: cddbd v1.4PL0 Copyright (c) Steve Scherf et al.
# Submitted via: audiograbber 1.82.02
#
DISCID=3e115314
DTITLE=Dixie Chicks - Top Tunes Karaoke TT-192
DYEAR=1900
DGENRE=Karaoke
TTITLE0=Cowboy Take me Away
TTITLE1=Goodbye Earl
TTITLE2=Heart Break Town
TTITLE3=I Can Love You Better
TTITLE4=Landslide
TTITLE5=Long Time Gone
TTITLE6=Once You've Loved Somebody
TTITLE7=Ready to Run
TTITLE8=Sin Wagon
TTITLE9=Some Days You Gotta Dance
TTITLE10=Strong Enough
TTITLE11=There's Your Trouble
TTITLE12=Tonight The Heartache's On Me
TTITLE13=Travelin' Soldier
TTITLE14=Truth No. 2
TTITLE15=White Trash Wedding
TTITLE16=Wide Open Spaces
TTITLE17=Without You
TTITLE18=You Were Mine
TTITLE19=Data Track
EXTD=
EXTT0=
EXTT1=
EXTT2=
EXTT3=
EXTT4=
EXTT5=
EXTT6=
EXTT7=
EXTT8=
EXTT9=
EXTT10=
EXTT11=
EXTT12=
EXTT13=
EXTT14=
EXTT15=
EXTT16=
EXTT17=
EXTT18=
EXTT19=
PLAYORDER=
